<?xml version="1.0" encoding="iso-8859-1"?>
<!-- Uploaded to: SVG Repo, www.svgrepo.com, Generator: SVG Repo Mixer Tools -->
<svg fill="#000000" version="1.1" id="Layer_1" xmlns="http://www.w3.org/2000/svg" xmlns:xlink="http://www.w3.org/1999/xlink" 
	 viewBox="0 0 512 512" xml:space="preserve">
<g>
	<g>
		<path d="M255.999,0C114.842,0,0.001,114.841,0.001,256s114.841,256,255.999,256c141.159,0,256-114.841,256-256
			S397.159,0,255.999,0z M255.999,474.656c-120.566,0-218.655-98.089-218.655-218.656S135.433,37.344,255.999,37.344
			c120.567,0,218.656,98.089,218.656,218.656S376.568,474.656,255.999,474.656z"/>
	</g>
</g>
<g>
	<g>
		<rect x="239.049" y="268.799" width="38.862" height="37.344"/>
	</g>
</g>
<g>
	<g>
		<rect x="239.049" y="182.361" width="38.862" height="37.344"/>
	</g>
</g>
<g>
	<g>
		<rect x="239.049" y="94.666" width="38.862" height="37.344"/>
	</g>
</g>
<g>
	<g>
		<rect x="152.064" y="224.036" width="38.862" height="37.344"/>
	</g>
</g>
<g>
	<g>
		<rect x="326.035" y="225.879" width="38.862" height="37.344"/>
	</g>
</g>
<g>
	<g>
		<rect x="152.064" y="137.586" width="38.862" height="37.344"/>
	</g>
</g>
<g>
	<g>
		<rect x="326.035" y="139.441" width="38.862" height="37.344"/>
	</g>
</g>
</svg>